<mxfile host="Electron" modified="2024-04-03T18:18:03.461Z" agent="Mozilla/5.0 (Windows NT 10.0; Win64; x64) AppleWebKit/537.36 (KHTML, like Gecko) draw.io/22.0.0 Chrome/114.0.5735.289 Electron/25.8.3 Safari/537.36" etag="aZ5DTjJFd14uTWXl4a32" version="22.0.0" type="device">
  <diagram name="Page-1" id="_7SXik-QNJEyfd51nSA4">
    <mxGraphModel dx="1329" dy="782" grid="1" gridSize="10" guides="1" tooltips="1" connect="1" arrows="1" fold="1" page="1" pageScale="1" pageWidth="850" pageHeight="1100" math="0" shadow="0">
      <root>
        <mxCell id="0" />
        <mxCell id="1" parent="0" />
        <mxCell id="o0ZJqGej7Y8488bBRY87-1" value="" style="whiteSpace=wrap;html=1;aspect=fixed;" vertex="1" parent="1">
          <mxGeometry x="210" y="100" width="320" height="320" as="geometry" />
        </mxCell>
        <mxCell id="o0ZJqGej7Y8488bBRY87-3" value="Username" style="text;html=1;strokeColor=none;fillColor=none;align=center;verticalAlign=middle;whiteSpace=wrap;rounded=0;" vertex="1" parent="1">
          <mxGeometry x="275.5" y="220" width="60" height="30" as="geometry" />
        </mxCell>
        <mxCell id="o0ZJqGej7Y8488bBRY87-4" value="Password" style="text;html=1;strokeColor=none;fillColor=none;align=center;verticalAlign=middle;whiteSpace=wrap;rounded=0;" vertex="1" parent="1">
          <mxGeometry x="275.5" y="250" width="60" height="30" as="geometry" />
        </mxCell>
        <mxCell id="o0ZJqGej7Y8488bBRY87-5" value="" style="rounded=0;whiteSpace=wrap;html=1;" vertex="1" parent="1">
          <mxGeometry x="345.5" y="225" width="120" height="20" as="geometry" />
        </mxCell>
        <mxCell id="o0ZJqGej7Y8488bBRY87-6" value="" style="rounded=0;whiteSpace=wrap;html=1;" vertex="1" parent="1">
          <mxGeometry x="346.5" y="255" width="120" height="20" as="geometry" />
        </mxCell>
        <mxCell id="o0ZJqGej7Y8488bBRY87-7" value="" style="ellipse;whiteSpace=wrap;html=1;aspect=fixed;" vertex="1" parent="1">
          <mxGeometry x="230" y="120" width="60" height="60" as="geometry" />
        </mxCell>
        <mxCell id="o0ZJqGej7Y8488bBRY87-8" value="" style="endArrow=none;html=1;rounded=0;entryX=0;entryY=0;entryDx=0;entryDy=0;exitX=1;exitY=1;exitDx=0;exitDy=0;" edge="1" parent="1" source="o0ZJqGej7Y8488bBRY87-7" target="o0ZJqGej7Y8488bBRY87-7">
          <mxGeometry width="50" height="50" relative="1" as="geometry">
            <mxPoint x="400" y="290" as="sourcePoint" />
            <mxPoint x="450" y="240" as="targetPoint" />
          </mxGeometry>
        </mxCell>
        <mxCell id="o0ZJqGej7Y8488bBRY87-9" value="" style="endArrow=none;html=1;rounded=0;entryX=1;entryY=0;entryDx=0;entryDy=0;exitX=0;exitY=1;exitDx=0;exitDy=0;" edge="1" parent="1" source="o0ZJqGej7Y8488bBRY87-7" target="o0ZJqGej7Y8488bBRY87-7">
          <mxGeometry width="50" height="50" relative="1" as="geometry">
            <mxPoint x="400" y="290" as="sourcePoint" />
            <mxPoint x="450" y="240" as="targetPoint" />
          </mxGeometry>
        </mxCell>
        <mxCell id="o0ZJqGej7Y8488bBRY87-10" value="Login" style="rounded=1;whiteSpace=wrap;html=1;" vertex="1" parent="1">
          <mxGeometry x="320" y="369" width="80" height="30" as="geometry" />
        </mxCell>
        <mxCell id="o0ZJqGej7Y8488bBRY87-11" value="Forgot Password?" style="text;html=1;strokeColor=none;fillColor=none;align=center;verticalAlign=middle;whiteSpace=wrap;rounded=0;" vertex="1" parent="1">
          <mxGeometry x="370" y="277" width="100" height="30" as="geometry" />
        </mxCell>
        <mxCell id="o0ZJqGej7Y8488bBRY87-15" value="Guest Mode" style="rounded=1;whiteSpace=wrap;html=1;" vertex="1" parent="1">
          <mxGeometry x="395" y="127" width="120" height="40" as="geometry" />
        </mxCell>
        <mxCell id="o0ZJqGej7Y8488bBRY87-18" value="" style="endArrow=classic;html=1;rounded=0;exitX=1;exitY=0.5;exitDx=0;exitDy=0;entryX=-0.007;entryY=0.065;entryDx=0;entryDy=0;entryPerimeter=0;" edge="1" parent="1" source="o0ZJqGej7Y8488bBRY87-11" target="o0ZJqGej7Y8488bBRY87-20">
          <mxGeometry width="50" height="50" relative="1" as="geometry">
            <mxPoint x="400" y="290" as="sourcePoint" />
            <mxPoint x="610" y="290" as="targetPoint" />
          </mxGeometry>
        </mxCell>
        <mxCell id="o0ZJqGej7Y8488bBRY87-20" value="" style="rounded=0;whiteSpace=wrap;html=1;" vertex="1" parent="1">
          <mxGeometry x="630" y="280" width="290" height="170" as="geometry" />
        </mxCell>
        <mxCell id="o0ZJqGej7Y8488bBRY87-21" value="Enter your email:&amp;nbsp;" style="text;html=1;strokeColor=none;fillColor=none;align=center;verticalAlign=middle;whiteSpace=wrap;rounded=0;" vertex="1" parent="1">
          <mxGeometry x="640" y="330" width="100" height="30" as="geometry" />
        </mxCell>
        <mxCell id="o0ZJqGej7Y8488bBRY87-22" value="" style="rounded=0;whiteSpace=wrap;html=1;" vertex="1" parent="1">
          <mxGeometry x="740" y="335" width="120" height="20" as="geometry" />
        </mxCell>
        <mxCell id="o0ZJqGej7Y8488bBRY87-23" value="Next" style="rounded=1;whiteSpace=wrap;html=1;" vertex="1" parent="1">
          <mxGeometry x="742.5" y="390" width="75" height="30" as="geometry" />
        </mxCell>
        <mxCell id="o0ZJqGej7Y8488bBRY87-24" value="" style="endArrow=classic;html=1;rounded=0;exitX=1;exitY=0.5;exitDx=0;exitDy=0;" edge="1" parent="1" source="o0ZJqGej7Y8488bBRY87-23">
          <mxGeometry width="50" height="50" relative="1" as="geometry">
            <mxPoint x="640" y="290" as="sourcePoint" />
            <mxPoint x="1030" y="405" as="targetPoint" />
          </mxGeometry>
        </mxCell>
        <mxCell id="o0ZJqGej7Y8488bBRY87-25" value="" style="rounded=0;whiteSpace=wrap;html=1;" vertex="1" parent="1">
          <mxGeometry x="1140" y="345" width="120" height="20" as="geometry" />
        </mxCell>
        <mxCell id="o0ZJqGej7Y8488bBRY87-26" value="" style="rounded=0;whiteSpace=wrap;html=1;" vertex="1" parent="1">
          <mxGeometry x="1030" y="290" width="290" height="170" as="geometry" />
        </mxCell>
        <mxCell id="o0ZJqGej7Y8488bBRY87-27" value="Next" style="rounded=1;whiteSpace=wrap;html=1;" vertex="1" parent="1">
          <mxGeometry x="1132.5" y="410" width="75" height="30" as="geometry" />
        </mxCell>
        <mxCell id="o0ZJqGej7Y8488bBRY87-28" value="Enter the code:" style="text;html=1;strokeColor=none;fillColor=none;align=center;verticalAlign=middle;whiteSpace=wrap;rounded=0;" vertex="1" parent="1">
          <mxGeometry x="1050" y="360" width="100" height="30" as="geometry" />
        </mxCell>
        <mxCell id="o0ZJqGej7Y8488bBRY87-29" value="" style="rounded=0;whiteSpace=wrap;html=1;" vertex="1" parent="1">
          <mxGeometry x="1144" y="365" width="120" height="20" as="geometry" />
        </mxCell>
        <mxCell id="o0ZJqGej7Y8488bBRY87-30" value="Please enter the code sent to your email&amp;nbsp;" style="text;html=1;strokeColor=none;fillColor=none;align=center;verticalAlign=middle;whiteSpace=wrap;rounded=0;" vertex="1" parent="1">
          <mxGeometry x="1050" y="320" width="240" height="30" as="geometry" />
        </mxCell>
        <mxCell id="o0ZJqGej7Y8488bBRY87-31" value="" style="endArrow=classic;html=1;rounded=0;exitX=1;exitY=0.5;exitDx=0;exitDy=0;" edge="1" parent="1" source="o0ZJqGej7Y8488bBRY87-27">
          <mxGeometry width="50" height="50" relative="1" as="geometry">
            <mxPoint x="1000" y="290" as="sourcePoint" />
            <mxPoint x="1370" y="425" as="targetPoint" />
          </mxGeometry>
        </mxCell>
      </root>
    </mxGraphModel>
  </diagram>
</mxfile>
